<svg width="22" height="17" viewBox="0 0 22 17" fill="none" xmlns="http://www.w3.org/2000/svg">
<path d="M20.1668 6.16668H1.8335M20.1668 7.08334V4.51668C20.1668 3.48992 20.1668 2.97653 19.967 2.58436C19.7912 2.2394 19.5108 1.95893 19.1658 1.78317C18.7736 1.58334 18.2603 1.58334 17.2335 1.58334H4.76683C3.74007 1.58334 3.22669 1.58334 2.83451 1.78317C2.48955 1.95893 2.20909 2.2394 2.03332 2.58436C1.8335 2.97653 1.8335 3.48991 1.8335 4.51668V11.4833C1.8335 12.5101 1.8335 13.0235 2.03332 13.4157C2.20909 13.7606 2.48955 14.0411 2.83451 14.2169C3.22669 14.4167 3.74007 14.4167 4.76683 14.4167C7.02211 14.4167 8.28655 14.4167 10.5418 14.4167M16.4979 10.7967C15.8106 9.99322 14.6646 9.77708 13.8035 10.5128C12.9423 11.2486 12.8211 12.4787 13.4973 13.3489C13.9305 13.9063 15.0397 14.9398 15.7813 15.6109C16.0277 15.8339 16.151 15.9454 16.2986 15.9901C16.4254 16.0286 16.5704 16.0286 16.6973 15.9901C16.8449 15.9454 16.9681 15.8339 17.2145 15.6109C17.9561 14.9398 19.0654 13.9063 19.4985 13.3489C20.1747 12.4787 20.0683 11.2408 19.1924 10.5128C18.3165 9.78482 17.1852 9.99322 16.4979 10.7967Z" stroke="white" stroke-width="1.83333" stroke-linecap="round" stroke-linejoin="round"/>
</svg>
