<svg width="19" height="22" viewBox="0 0 19 22" fill="none" xmlns="http://www.w3.org/2000/svg">
<path d="M16.3332 9.16666V6.23333C16.3332 4.69318 16.3332 3.92311 16.0334 3.33485C15.7698 2.81741 15.3491 2.39671 14.8316 2.13306C14.2434 1.83333 13.4733 1.83333 11.9332 1.83333H6.0665C4.52636 1.83333 3.75629 1.83333 3.16803 2.13306C2.65058 2.39671 2.22989 2.81741 1.96624 3.33485C1.6665 3.92311 1.6665 4.69318 1.6665 6.23333V15.7667C1.6665 17.3068 1.6665 18.0769 1.96624 18.6651C2.22989 19.1826 2.65058 19.6033 3.16803 19.8669C3.75629 20.1667 4.52636 20.1667 6.0665 20.1667H8.99984M9.45817 10.0833H5.33317M6.24984 13.75H5.33317M12.6665 6.41666H5.33317M13.5807 13.5947C12.8476 12.7615 11.6251 12.5373 10.7066 13.3003C9.78804 14.0633 9.65873 15.339 10.38 16.2414C11.1014 17.1438 13.5807 19.25 13.5807 19.25C13.5807 19.25 16.06 17.1438 16.7813 16.2414C17.5026 15.339 17.3891 14.0553 16.4548 13.3003C15.5205 12.5453 14.3138 12.7615 13.5807 13.5947Z" stroke="white" stroke-width="1.83333" stroke-linecap="round" stroke-linejoin="round"/>
</svg>
