<svg width="22" height="22" viewBox="0 0 22 22" fill="none" xmlns="http://www.w3.org/2000/svg">
<path d="M7.79183 13.4444C7.79183 14.6257 8.74944 15.5833 9.93072 15.5833H11.9168C13.1825 15.5833 14.2085 14.5573 14.2085 13.2917C14.2085 12.026 13.1825 11 11.9168 11H10.0835C8.81784 11 7.79183 9.97398 7.79183 8.70833C7.79183 7.44268 8.81784 6.41666 10.0835 6.41666H12.0696C13.2509 6.41666 14.2085 7.37427 14.2085 8.55555M11.0002 5.04166V6.41666M11.0002 15.5833V16.9583M20.1668 11C20.1668 16.0626 16.0628 20.1667 11.0002 20.1667C5.93755 20.1667 1.8335 16.0626 1.8335 11C1.8335 5.93738 5.93755 1.83333 11.0002 1.83333C16.0628 1.83333 20.1668 5.93738 20.1668 11Z" stroke="white" stroke-width="1.83333" stroke-linecap="round" stroke-linejoin="round"/>
</svg>
