<svg width="18" height="19" viewBox="0 0 18 19" fill="none" xmlns="http://www.w3.org/2000/svg">
<path d="M16.5 6.41394H1.5M12.3333 1.41394V3.91394M5.66667 1.41394V3.91394M8.99772 10.0228C8.33127 9.26527 7.21992 9.06151 6.3849 9.75515C5.54988 10.4488 5.43232 11.6085 6.08807 12.4289C6.56417 13.0245 7.88272 14.197 8.56944 14.7947C8.71831 14.9243 8.79275 14.9891 8.87997 15.0148C8.95553 15.037 9.0399 15.037 9.11546 15.0148C9.20268 14.9891 9.27712 14.9243 9.42599 14.7947C10.1127 14.197 11.4313 13.0245 11.9074 12.4289C12.5631 11.6085 12.4599 10.4415 11.6105 9.75515C10.7612 9.06881 9.66417 9.26527 8.99772 10.0228ZM5.5 18.0806H12.5C13.9001 18.0806 14.6002 18.0806 15.135 17.8081C15.6054 17.5684 15.9878 17.186 16.2275 16.7156C16.5 16.1808 16.5 15.4807 16.5 14.0806V7.08061C16.5 5.68048 16.5 4.98041 16.2275 4.44563C15.9878 3.97523 15.6054 3.59277 15.135 3.35309C14.6002 3.08061 13.9001 3.08061 12.5 3.08061H5.5C4.09987 3.08061 3.3998 3.08061 2.86502 3.35309C2.39462 3.59277 2.01217 3.97523 1.77248 4.44563C1.5 4.98041 1.5 5.68048 1.5 7.08061V14.0806C1.5 15.4807 1.5 16.1808 1.77248 16.7156C2.01217 17.186 2.39462 17.5684 2.86502 17.8081C3.3998 18.0806 4.09987 18.0806 5.5 18.0806Z" stroke="#0E8C2A" stroke-width="1.66667" stroke-linecap="round" stroke-linejoin="round"/>
</svg>
