<svg width="20" height="20" viewBox="0 0 20 20" fill="none" xmlns="http://www.w3.org/2000/svg">
<path d="M11.7084 4.74727C12.5223 4.90608 13.2704 5.30415 13.8568 5.89055C14.4432 6.47695 14.8412 7.22499 15 8.03894M11.7084 1.41394C13.3994 1.6018 14.9764 2.35909 16.1802 3.56145C17.3841 4.76381 18.1434 6.33978 18.3334 8.03061M8.52253 11.2998C7.52121 10.2985 6.73055 9.16631 6.15056 7.9583C6.10067 7.85439 6.07572 7.80244 6.05656 7.73669C5.98846 7.50307 6.03737 7.21618 6.17905 7.01832C6.21892 6.96265 6.26655 6.91502 6.36181 6.81976C6.65315 6.52842 6.79881 6.38275 6.89405 6.23627C7.25322 5.68386 7.25321 4.97171 6.89405 4.4193C6.79881 4.27282 6.65315 4.12715 6.36181 3.83581L6.19942 3.67342C5.75655 3.23055 5.53511 3.00912 5.2973 2.88883C4.82433 2.6496 4.26577 2.6496 3.79281 2.88883C3.55499 3.00912 3.33355 3.23055 2.89069 3.67342L2.75932 3.80478C2.31797 4.24613 2.09729 4.46681 1.92875 4.76684C1.74174 5.09976 1.60727 5.61684 1.60841 5.99869C1.60943 6.34281 1.67618 6.578 1.80969 7.04837C2.52716 9.5762 3.88089 11.9615 5.87088 13.9515C7.86086 15.9415 10.2462 17.2952 12.774 18.0127C13.2444 18.1462 13.4795 18.2129 13.8237 18.214C14.2055 18.2151 14.7226 18.0806 15.0555 17.8936C15.3555 17.7251 15.5762 17.5044 16.0176 17.063L16.1489 16.9317C16.5918 16.4888 16.8132 16.2674 16.9335 16.0296C17.1728 15.5566 17.1728 14.998 16.9335 14.5251C16.8132 14.2872 16.5918 14.0658 16.1489 13.6229L15.9865 13.4605C15.6952 13.1692 15.5495 13.0235 15.4031 12.9283C14.8506 12.5691 14.1385 12.5691 13.5861 12.9283C13.4396 13.0235 13.2939 13.1692 13.0026 13.4605C12.9073 13.5558 12.8597 13.6034 12.804 13.6433C12.6062 13.785 12.3193 13.8339 12.0857 13.7658C12.0199 13.7466 11.968 13.7217 11.8641 13.6718C10.656 13.0918 9.52384 12.3011 8.52253 11.2998Z" stroke="#0E8C2A" stroke-width="1.66667" stroke-linecap="round" stroke-linejoin="round"/>
</svg>
