<svg width="20" height="19" viewBox="0 0 20 19" fill="none" xmlns="http://www.w3.org/2000/svg">
<path d="M12.9549 8.01846C13.2666 7.4648 13.5264 6.9652 13.6866 6.58495C14.4648 4.7385 13.6953 2.61458 11.8144 1.74821C9.93355 0.881839 8.04483 1.78019 7.21592 3.51471C5.6308 2.42703 3.51631 2.58677 2.35023 4.28414C1.18415 5.98151 1.55012 8.19897 3.14723 9.40897C3.87208 9.95813 5.30563 10.7674 6.65529 11.4876M13.5813 9.5389C13.2296 7.64894 11.6215 6.26672 9.59669 6.6424C7.57193 7.01808 6.26272 8.84484 6.53645 10.8298C6.75637 12.4245 7.97026 16.1662 8.439 17.5756C8.50296 17.7679 8.53494 17.8641 8.59826 17.9311C8.65343 17.9896 8.72677 18.0319 8.80494 18.0505C8.89468 18.0718 8.99395 18.0514 9.19249 18.0106C10.6474 17.7119 14.4948 16.8923 15.9858 16.2854C17.8417 15.53 18.7994 13.484 18.0821 11.5414C17.3647 9.59883 15.3939 8.89853 13.5813 9.5389Z" stroke="#0E8C2A" stroke-width="1.66667" stroke-linecap="round" stroke-linejoin="round"/>
</svg>
