<svg width="20" height="16" viewBox="0 0 20 16" fill="none" xmlns="http://www.w3.org/2000/svg">
<path d="M1.66699 3.58057L8.47109 8.34344C9.02207 8.72912 9.29756 8.92196 9.59721 8.99666C9.8619 9.06264 10.1387 9.06264 10.4034 8.99666C10.7031 8.92196 10.9786 8.72912 11.5296 8.34344L18.3337 3.58057M5.66699 14.4139H14.3337C15.7338 14.4139 16.4339 14.4139 16.9686 14.1414C17.439 13.9017 17.8215 13.5193 18.0612 13.0489C18.3337 12.5141 18.3337 11.814 18.3337 10.4139V5.08057C18.3337 3.68044 18.3337 2.98037 18.0612 2.44559C17.8215 1.97518 17.439 1.59273 16.9686 1.35305C16.4339 1.08057 15.7338 1.08057 14.3337 1.08057H5.66699C4.26686 1.08057 3.5668 1.08057 3.03202 1.35305C2.56161 1.59273 2.17916 1.97518 1.93948 2.44559C1.66699 2.98037 1.66699 3.68044 1.66699 5.08057V10.4139C1.66699 11.814 1.66699 12.5141 1.93948 13.0489C2.17916 13.5193 2.56161 13.9017 3.03202 14.1414C3.5668 14.4139 4.26686 14.4139 5.66699 14.4139Z" stroke="#0E8C2A" stroke-width="1.66667" stroke-linecap="round" stroke-linejoin="round"/>
</svg>
