<svg width="20" height="19" viewBox="0 0 20 19" fill="none" xmlns="http://www.w3.org/2000/svg">
<path d="M4.43057 15.9459C4.93751 14.7516 6.12109 13.9139 7.50033 13.9139H12.5003C13.8796 13.9139 15.0631 14.7516 15.5701 15.9459M13.3337 7.66391C13.3337 9.50486 11.8413 10.9972 10.0003 10.9972C8.15938 10.9972 6.66699 9.50486 6.66699 7.66391C6.66699 5.82296 8.15938 4.33058 10.0003 4.33058C11.8413 4.33058 13.3337 5.82296 13.3337 7.66391ZM18.3337 9.74724C18.3337 14.3496 14.6027 18.0806 10.0003 18.0806C5.39795 18.0806 1.66699 14.3496 1.66699 9.74724C1.66699 5.14487 5.39795 1.41391 10.0003 1.41391C14.6027 1.41391 18.3337 5.14487 18.3337 9.74724Z" stroke="#0E8C2A" stroke-width="1.66667" stroke-linecap="round" stroke-linejoin="round"/>
</svg>
